<?xml version="1.0" encoding="UTF-8" standalone="no"?>
<svg
   xmlns:dc="http://purl.org/dc/elements/1.1/"
   xmlns:cc="http://creativecommons.org/ns#"
   xmlns:rdf="http://www.w3.org/1999/02/22-rdf-syntax-ns#"
   xmlns:svg="http://www.w3.org/2000/svg"
   xmlns="http://www.w3.org/2000/svg"
   xmlns:sodipodi="http://sodipodi.sourceforge.net/DTD/sodipodi-0.dtd"
   xmlns:inkscape="http://www.inkscape.org/namespaces/inkscape"
   height="129.78683mm"
   width="150.04308mm"
   inkscape:version="1.0beta2 (2b71d25, 2019-12-03)"
   sodipodi:docname="user.svg"
   xml:space="preserve"
   viewBox="0 0 567.09194 490.53292"
   y="0px"
   x="0px"
   id="Capa_1"
   version="1.1"><metadata
   id="metadata61"><rdf:RDF><cc:Work
       rdf:about=""><dc:format>image/svg+xml</dc:format><dc:type
         rdf:resource="http://purl.org/dc/dcmitype/StillImage" /><dc:title></dc:title></cc:Work></rdf:RDF></metadata><defs
   id="defs59">
	
	
	
	
	

		
		
	</defs><sodipodi:namedview
   fit-margin-bottom="0"
   fit-margin-right="0"
   fit-margin-left="0"
   fit-margin-top="0"
   units="mm"
   inkscape:snap-object-midpoints="true"
   inkscape:snap-global="true"
   inkscape:current-layer="Capa_1"
   inkscape:window-maximized="0"
   inkscape:window-y="26"
   inkscape:window-x="0"
   inkscape:cy="299.55493"
   inkscape:cx="231.04189"
   inkscape:zoom="0.81362301"
   showgrid="false"
   id="namedview57"
   inkscape:window-height="874"
   inkscape:window-width="1440"
   inkscape:pageshadow="2"
   inkscape:pageopacity="0"
   guidetolerance="10"
   gridtolerance="10"
   objecttolerance="10"
   borderopacity="1"
   inkscape:document-rotation="0"
   bordercolor="#666666"
   pagecolor="#ffffff" />
<path
   sodipodi:nodetypes="ccccccccccsccccccscscccsc"
   style="fill:#4d4d4d;stroke-width:0.595819"
   d="m 319.9972,191.30877 -55.22107,-21.35631 c -7.13568,-2.75949 -11.64283,-8.40106 -11.64214,-14.5719 v -16.76068 c 1.85488,-1.66166 3.59798,-3.39563 5.22321,-5.19564 7.4507,-8.19038 13.23824,-17.21344 17.16344,-26.75632 7.27253,-1.71039 12.25794,-6.884536 12.29859,-12.764016 v -17.88628 c -0.019,-3.789173 -2.12111,-7.393893 -5.78075,-9.912843 V 40.244531 C 282.03848,40.244531 288.90317,0 218.4474,0 147.99161,0 154.85631,40.244531 154.85631,40.244531 v 25.86025 c -3.65964,2.51895 -5.76179,6.12315 -5.78077,9.912843 v 17.88628 c 0.0182,4.55843 3.02892,8.797726 7.99336,11.254326 3.83779,12.17082 10.96467,23.57501 20.91181,33.46165 v 16.34514 c 0,5.96176 -4.20973,11.4477 -10.9762,14.30254 l -51.57432,21.75982 c -14.89665,6.28507 20.52759,8.71773 20.52826,21.8428 l 2.85272,10.97437 206.81771,13.15068 v -13.60612 c 0,-13.58462 -9.92275,-26.00435 -25.63168,-32.08034 z"
   id="path102"
   inkscape:connector-curvature="0" /><path
   sodipodi:nodetypes="ccccccccccsccccccscscccsc"
   inkscape:connector-curvature="0"
   id="path100"
   d="M 463.35598,192.30837 408.1349,170.95206 c -7.13568,-2.75949 -11.64282,-8.40106 -11.64214,-14.5719 v -16.76068 c 1.85488,-1.66166 3.59799,-3.39563 5.22321,-5.19564 7.4507,-8.19038 13.23824,-17.21344 17.16345,-26.75632 7.27253,-1.71039 12.25793,-6.88454 12.29859,-12.764016 v -17.88628 c -0.019,-3.789173 -2.12112,-7.393893 -5.78076,-9.912843 v -25.86024 c 0,0 6.86469,-40.244536 -63.59108,-40.244536 -70.45578,0 -63.59108,40.244536 -63.59108,40.244536 v 25.86024 c -3.65964,2.51895 -5.7618,6.12315 -5.78078,9.912843 v 17.88628 c 0.0182,4.55843 3.02893,8.797726 7.99336,11.254326 3.8378,12.17082 10.96467,23.57501 20.91181,33.46165 v 16.34514 c 0,5.96176 -4.20972,11.4477 -10.9762,14.30254 l -51.57431,21.75982 c -14.89666,6.28507 -24.16497,18.36157 -24.1643,31.48664 v 14.48121 l 206.81771,-14.90411 8.55815,-10.97598 c 8.60046,-11.03025 29.06437,-13.73038 13.35545,-19.80637 z"
   style="fill:#4d4d4d;stroke-width:0.595819" /><path
   style="fill:#4d4d4d;stroke-width:0.767329"
   d="m 526.63774,334.92217 -71.11675,-27.50385 c -9.18972,-3.55381 -14.99426,-10.81935 -14.99339,-18.76648 V 267.0665 c 2.38882,-2.13998 4.63368,-4.37308 6.72674,-6.69123 9.59542,-10.54803 17.04893,-22.16842 22.10402,-34.45827 9.36596,-2.20273 15.78646,-8.86629 15.83882,-16.4382 v -23.03494 c -0.0244,-4.87991 -2.73171,-9.52226 -7.44479,-12.76631 V 140.3733 c 0,0 8.84073,-51.829126 -81.89611,-51.829126 -90.73684,0 -81.89611,51.829126 -81.89611,51.829126 v 33.30425 c -4.71308,3.24405 -7.42035,7.88573 -7.44479,12.76631 v 23.03494 c 0.0235,5.87059 3.90082,11.3302 10.29428,14.49394 4.94253,15.67426 14.12091,30.36121 26.93139,43.09376 v 21.05018 c 0,7.67787 -5.42152,14.74297 -14.13575,18.41959 l -66.42024,28.0235 c -19.18474,8.09426 -31.12099,23.64704 -31.12013,40.55023 v 18.64971 H 559.64762 V 376.237 c 0,-17.49503 -12.77905,-33.48984 -33.00988,-41.31483 z"
   id="path84"
   inkscape:connector-curvature="0" /><path
   inkscape:connector-curvature="0"
   id="path86"
   d="M 559.64762,399.51895 H 232.06407 c -1.9744,6.8e-4 -3.86854,-0.60602 -5.26537,-1.68647 -1.39682,-1.08045 -2.18029,-2.54489 -2.18029,-4.07277 v -18.64837 c -0.009,-19.01279 13.41771,-36.50916 35.00086,-45.60896 l 66.42025,-28.0235 c 6.32278,-2.66636 10.25674,-7.79191 10.255,-13.3622 V 269.06341 C 324.21256,256.59944 315.357,242.44766 310.21465,227.3855 c -7.04344,-4.34677 -11.14579,-10.93677 -11.14579,-17.90603 v -23.03495 c 0.0279,-5.57095 2.67411,-10.94349 7.44478,-15.11682 v -30.63317 c -1.44568,-13.62741 4.15645,-27.14214 15.57708,-37.57815 15.29003,-13.491766 40.1083,-20.330096 73.76381,-20.330096 33.65553,0 58.4738,6.83833 73.76383,20.330096 11.42063,10.43601 17.02275,23.95074 15.57707,37.57815 v 30.63317 c 4.77066,4.17333 7.41686,9.54587 7.44478,15.11682 v 23.03495 c 0.0122,8.97225 -6.76425,17.11982 -17.3255,20.83086 -5.23482,11.88493 -12.63947,23.1301 -21.98973,33.39402 -1.85399,2.02998 -3.64954,3.86356 -5.35521,5.47783 v 19.46966 c -0.0261,5.77072 4.19221,11.05149 10.87708,13.61527 l 71.1211,27.50589 c 22.81334,8.74819 37.21083,26.76826 37.12359,46.464 v 17.52406 c 8.7e-4,1.5272 -0.78348,2.99232 -2.1803,4.07277 -1.39508,1.0791 -3.28922,1.68512 -5.26362,1.68512 z m -320.1379,-11.51781 h 312.69313 v -11.76549 c 0.0699,-15.32872 -11.13621,-29.35431 -28.89358,-36.16093 v 0 l -71.12112,-27.50589 c -11.74082,-4.50536 -19.14982,-13.7806 -19.10708,-23.91766 V 267.0665 c -8.7e-4,-1.39966 0.65872,-2.7514 1.854,-3.80148 2.21607,-1.98678 4.29692,-4.06062 6.23467,-6.21409 9.16442,-10.0689 16.2794,-21.16357 21.09893,-32.89936 0.74509,-1.7877 2.57204,-3.18196 4.89281,-3.73399 6.26258,-1.44015 10.56473,-5.88476 10.58916,-10.93811 v -23.03495 c -0.014,-3.25282 -1.83131,-6.34502 -4.9914,-8.49173 -1.56346,-1.09192 -2.45512,-2.64478 -2.45425,-4.27389 v -33.30425 c 0,-0.25172 0.0218,-0.50412 0.0654,-0.75382 1.01729,-10.52441 -3.31714,-20.94018 -12.08023,-29.03039 C 445.936,99.780564 424.9278,94.302734 395.85624,94.302734 c -29.18062,0 -50.22896,5.51697 -62.56742,16.404466 -8.74476,8.04633 -13.03731,18.43443 -11.94935,28.91228 0.0436,0.24969 0.0654,0.50142 0.0654,0.75382 v 33.30425 c 8.7e-4,1.62911 -0.8908,3.18264 -2.45425,4.27389 -3.16009,2.14673 -4.97745,5.23892 -4.99141,8.49174 v 23.03494 c 0.0166,3.91688 2.61393,7.55707 6.88903,9.65587 1.6289,0.81389 2.78317,2.08667 3.21766,3.54842 4.68342,14.78884 13.33222,28.65111 25.38538,40.68856 1.12025,1.03658 1.7336,2.34379 1.73447,3.69485 v 21.05019 c 8.8e-4,9.78478 -6.90734,18.78806 -18.01301,23.4736 l -66.42025,28.02418 c -16.80026,7.08062 -27.25158,20.69858 -27.24285,35.49755 z"
   style="fill:#ffffff;stroke-width:0.767329" /><path
   inkscape:connector-curvature="0"
   id="path80"
   d="m 302.01933,333.16876 -71.11675,-27.50385 c -9.18972,-3.55381 -14.99426,-10.81933 -14.99338,-18.76646 v -21.58536 c 2.38881,-2.13997 4.63368,-4.37308 6.72673,-6.69122 9.59543,-10.54804 17.04893,-22.16842 22.10402,-34.45828 9.36596,-2.20273 15.78647,-8.86628 15.83882,-16.4382 v -23.03494 c -0.0244,-4.87991 -2.7317,-9.52226 -7.44478,-12.7663 v -33.30427 c 0,0 8.84073,-51.829116 -81.89612,-51.829116 -90.736836,0 -81.896101,51.829116 -81.896101,51.829116 v 33.30427 c -4.713081,3.24404 -7.420355,7.88572 -7.444784,12.7663 v 23.03494 c 0.02356,5.87059 3.900812,11.3302 10.29427,14.49394 4.94254,15.67426 14.120925,30.36121 26.931385,43.09376 v 21.0502 c 0,7.67786 -5.42152,14.74295 -14.13574,18.41957 L 38.566652,332.80637 C 19.381917,340.90062 7.4456598,356.45342 7.446533,373.35659 v 18.64972 H 335.02921 V 374.4836 c 0,-17.49503 -12.77905,-33.48985 -33.00988,-41.31484 z"
   style="fill:#4d4d4d;stroke-width:0.767329" /><path
   style="fill:#ffffff;stroke-width:0.767329"
   d="M 335.02921,397.76555 H 7.4456598 C 5.4712617,397.76622 3.5771304,397.15953 2.1803062,396.07908 0.783482,394.99863 4.2031904e-6,393.53418 4.2031904e-6,392.00631 V 373.35794 C -0.0086728,354.34515 13.417715,336.84877 35.00087,327.74898 l 66.42024,-28.0235 c 6.32279,-2.66636 10.25676,-7.79192 10.25501,-13.36219 V 267.31001 C 99.59416,254.84604 90.738593,240.69426 85.596256,225.63209 c -7.043447,-4.34677 -11.1458,-10.93676 -11.1458,-17.90602 v -23.03494 c 0.02792,-5.57097 2.674121,-10.94351 7.444784,-15.11683 v -30.63319 c -1.445682,-13.6274 4.156446,-27.14212 15.577074,-37.57813 15.290026,-13.491776 40.108296,-20.330106 73.763806,-20.330106 33.65553,0 58.4738,6.83833 73.76383,20.330106 11.42063,10.43601 17.02276,23.95073 15.57707,37.57813 v 30.63319 c 4.77066,4.17332 7.41687,9.54586 7.44479,15.11683 v 23.03494 c 0.0122,8.97225 -6.76426,17.11981 -17.32551,20.83086 -5.23482,11.88494 -12.63947,23.1301 -21.98973,33.39402 -1.85399,2.02997 -3.64954,3.86356 -5.35521,5.47782 v 19.46968 c -0.0261,5.77071 4.19221,11.05148 10.87708,13.61527 l 71.12111,27.50587 c 22.81333,8.7482 37.21082,26.76827 37.12358,46.46401 v 17.52405 c 8.7e-4,1.52721 -0.78347,2.99232 -2.1803,4.07278 -1.39508,1.0791 -3.28922,1.68512 -5.26362,1.68512 z M 14.891317,386.24774 H 327.58444 v -11.76549 c 0.0697,-15.32873 -11.13621,-29.35431 -28.89358,-36.16094 v 0 l -71.12111,-27.50588 c -11.74083,-4.50536 -19.14983,-13.78061 -19.10709,-23.91766 v -21.58468 c -8.7e-4,-1.39965 0.65872,-2.75139 1.85401,-3.80147 2.21606,-1.98679 4.29691,-4.06063 6.23466,-6.2141 9.16442,-10.06889 16.27942,-21.16356 21.09893,-32.89935 0.7451,-1.7877 2.57204,-3.18197 4.89282,-3.73399 6.26259,-1.44015 10.56472,-5.88477 10.58916,-10.93811 v -23.03494 c -0.014,-3.25282 -1.83131,-6.34503 -4.9914,-8.49175 -1.56346,-1.09192 -2.45513,-2.64477 -2.45426,-4.27388 v -33.30426 c 0,-0.25172 0.0218,-0.50413 0.0654,-0.75382 1.01729,-10.52441 -3.31714,-20.94018 -12.08022,-29.03038 -12.35417,-10.809886 -33.36237,-16.287706 -62.43393,-16.287706 -29.18062,0 -50.22894,5.51696 -62.56741,16.404456 -8.744764,8.04634 -13.037315,18.43443 -11.949346,28.91228 0.04362,0.24969 0.06544,0.50142 0.06544,0.75381 v 33.30427 c 8.73e-4,1.62911 -0.890792,3.18263 -2.454257,4.27388 -3.160085,2.14673 -4.97744,5.23892 -4.991399,8.49174 v 23.03494 c 0.01657,3.91688 2.613919,7.55708 6.88902,9.65589 1.628901,0.81388 2.783178,2.08666 3.217668,3.5484 4.683424,14.78885 13.332204,28.65112 25.385374,40.68856 1.12025,1.0366 1.73359,2.34379 1.73447,3.69486 v 21.05019 c 8.7e-4,9.78477 -6.90735,18.78806 -18.013,23.4736 L 42.134148,337.86039 C 25.333873,344.941 14.882559,358.55897 14.891284,373.35794 Z"
   id="path82"
   inkscape:connector-curvature="0" />
<g
   transform="translate(8.7939321,-25.442046)"
   id="g26">
</g>
<g
   transform="translate(8.7939321,-25.442046)"
   id="g28">
</g>
<g
   transform="translate(8.7939321,-25.442046)"
   id="g30">
</g>
<g
   transform="translate(8.7939321,-25.442046)"
   id="g32">
</g>
<g
   transform="translate(8.7939321,-25.442046)"
   id="g34">
</g>
<g
   transform="translate(8.7939321,-25.442046)"
   id="g36">
</g>
<g
   transform="translate(8.7939321,-25.442046)"
   id="g38">
</g>
<g
   transform="translate(8.7939321,-25.442046)"
   id="g40">
</g>
<g
   transform="translate(8.7939321,-25.442046)"
   id="g42">
</g>
<g
   transform="translate(8.7939321,-25.442046)"
   id="g44">
</g>
<g
   transform="translate(8.7939321,-25.442046)"
   id="g46">
</g>
<g
   transform="translate(8.7939321,-25.442046)"
   id="g48">
</g>
<g
   transform="translate(8.7939321,-25.442046)"
   id="g50">
</g>
<g
   transform="translate(8.7939321,-25.442046)"
   id="g52">
</g>
<g
   transform="translate(8.7939321,-25.442046)"
   id="g54">
</g>
<ellipse
   cx="282.4527"
   cy="218.88084"
   rx="142.92479"
   ry="127.74946"
   id="path267"
   style="font-variation-settings:normal;vector-effect:none;fill:#ffffff;fill-opacity:1;fill-rule:evenodd;stroke:#ffffff;stroke-width:0;stroke-linecap:round;stroke-linejoin:round;stroke-miterlimit:4;stroke-dasharray:none;stroke-dashoffset:0;stroke-opacity:0.995935;stop-color:#000000" /><path
   style="fill:#ff7f2a;stroke-width:0.767329"
   d="M 417.25634,365.50948 346.1396,338.00563 c -9.18973,-3.55382 -14.99427,-10.81934 -14.9934,-18.76648 V 297.6538 c 2.38882,-2.13998 4.63368,-4.37307 6.72674,-6.69122 9.59542,-10.54803 17.04893,-22.16842 22.10402,-34.45827 9.36596,-2.20274 15.78646,-8.86629 15.83882,-16.43821 v -23.03494 c -0.0244,-4.8799 -2.73171,-9.52225 -7.44479,-12.76629 V 170.9606 c 0,0 8.84073,-51.82913 -81.89611,-51.82913 -90.73684,0 -81.8961,51.82913 -81.8961,51.82913 v 33.30427 c -4.71309,3.24404 -7.42037,7.88571 -7.44479,12.76629 v 23.03494 c 0.0235,5.8706 3.90081,11.33021 10.29427,14.49394 4.94254,15.67427 14.12092,30.36121 26.9314,43.09376 v 21.05019 c 0,7.67787 -5.42153,14.74297 -14.13577,18.41959 l -66.42023,28.0235 c -19.18474,8.09426 -31.12099,23.64704 -31.12012,40.55023 v 18.64971 h 327.58269 v -17.52271 c 0,-17.49503 -12.77906,-33.48984 -33.00989,-41.31483 z"
   id="path14"
   inkscape:connector-curvature="0" /><path
   inkscape:connector-curvature="0"
   id="path18"
   d="M 450.26623,430.10626 H 122.68267 c -1.9744,6.8e-4 -3.86854,-0.60603 -5.26536,-1.68647 -1.39682,-1.08045 -2.1803,-2.54489 -2.1803,-4.07277 v -18.64837 c -0.009,-19.01279 13.41771,-36.50916 35.00087,-45.60896 l 66.42024,-28.0235 c 6.32279,-2.66636 10.25675,-7.79191 10.255,-13.3622 v -19.05327 c -12.08196,-12.46397 -20.93752,-26.61575 -26.07986,-41.67792 -7.04345,-4.34677 -11.1458,-10.93676 -11.1458,-17.90602 v -23.03494 c 0.0279,-5.57096 2.67412,-10.94351 7.44478,-15.11684 v -30.63317 c -1.44568,-13.62741 4.15645,-27.14213 15.57708,-37.57815 15.29003,-13.49177 40.1083,-20.33011 73.76382,-20.33011 33.65551,0 58.47379,6.83834 73.76381,20.33011 11.42063,10.43602 17.02276,23.95074 15.57708,37.57815 V 201.915 c 4.77067,4.17333 7.41686,9.54588 7.44478,15.11684 v 23.03494 c 0.0123,8.97225 -6.76425,17.11982 -17.3255,20.83086 -5.23482,11.88493 -12.63946,23.1301 -21.98972,33.39402 -1.854,2.02998 -3.64954,3.86357 -5.35523,5.47783 v 19.46966 c -0.0261,5.77073 4.19222,11.05149 10.87709,13.61527 l 71.1211,27.50589 c 22.81334,8.74818 37.21084,26.76826 37.12359,46.464 v 17.52406 c 8.8e-4,1.5272 -0.78348,2.99232 -2.18031,4.07277 -1.39508,1.07909 -3.2892,1.68512 -5.2636,1.68512 z m -320.1379,-11.51781 h 312.69312 v -11.76549 c 0.0697,-15.32873 -11.13621,-29.35431 -28.89358,-36.16093 v 0 l -71.12111,-27.50589 c -11.74082,-4.50536 -19.14984,-13.7806 -19.10709,-23.91766 V 297.6538 c -8.7e-4,-1.39965 0.65872,-2.75139 1.854,-3.80147 2.21608,-1.98679 4.29691,-4.06062 6.23467,-6.21409 9.16442,-10.0689 16.27941,-21.16357 21.09893,-32.89937 0.74509,-1.78769 2.57204,-3.18195 4.89281,-3.73398 6.26259,-1.44015 10.56474,-5.88477 10.58916,-10.93811 v -23.03494 c -0.014,-3.25282 -1.8313,-6.34502 -4.99139,-8.49174 -1.56347,-1.09193 -2.45513,-2.64478 -2.45426,-4.27389 v -33.30426 c 0,-0.25172 0.0218,-0.50412 0.0654,-0.75382 1.0173,-10.52442 -3.31712,-20.94018 -12.08021,-29.03039 -12.35417,-10.80988 -33.36237,-16.2877 -62.43393,-16.2877 -29.18062,0 -50.22895,5.51696 -62.56741,16.40445 -8.74477,8.04634 -13.03732,18.43444 -11.94935,28.91229 0.0436,0.24969 0.0654,0.50142 0.0654,0.75382 v 33.30427 c 8.8e-4,1.6291 -0.89079,3.18263 -2.45426,4.27388 -3.16008,2.14672 -4.97744,5.23892 -4.9914,8.49174 v 23.03494 c 0.0166,3.91688 2.61392,7.55706 6.88903,9.65587 1.6289,0.81389 2.78317,2.08667 3.21766,3.54842 4.68342,14.78884 13.33221,28.65112 25.38538,40.68856 1.12026,1.03658 1.7336,2.34379 1.73447,3.69485 v 21.05019 c 8.8e-4,9.78478 -6.90735,18.78806 -18.01301,23.47359 l -66.42018,28.02418 c -16.80027,7.08062 -27.25158,20.6986 -27.24285,35.49756 z"
   style="fill:#ffffff;stroke-width:0.767329" /><g
   transform="matrix(0.96796291,0,0,0.89243899,559.86399,-49.323699)"
   id="g257"><path
     inkscape:connector-curvature="0"
     id="path253"
     d="m -65.665567,565.67258 c -3.3236,-1.18392 76.119928,79.73032 8.850818,12.54854 -58.167861,-58.09237 -82.234581,-92.48386 -83.600741,-95.39577 -2.6626,-5.67521 -12.2199,-5.59754 -9.41418,-11.39339 l 2.27535,-4.70024 -11.55276,-11.5887 c -11.43468,-11.47024 -11.57499,-11.56834 -13.72564,-9.59589 -8.92771,8.18792 -33.41133,21.03558 -51.70201,27.13038 -21.31795,7.10355 -30.78497,8.54499 -56.45256,8.5954 -19.74573,0.0388 -24.55217,-0.28975 -34.88919,-2.38484 -74.56789,-15.11335 -130.09407,-71.83253 -143.60475,-146.69017 -2.37341,-13.15013 -2.71817,-44.98386 -0.61716,-56.98514 7.31311,-41.77351 24.70514,-75.12072 53.68717,-102.93896 48.47211,-46.52566 118.21489,-62.17925 182.05845,-40.86259 62.9428,21.01593 108.97176,75.06647 120.19244,141.1387 2.06099,12.13598 2.28243,16.41318 1.79221,34.61714 -0.41356,15.3572 -1.13968,23.45659 -2.78614,31.0778 -4.97778,23.04138 -14.29625,45.1224 -27.07827,64.16466 -3.89992,5.80998 -7.09077,10.85134 -7.09077,11.20303 0,0.35168 4.98653,5.60898 11.08118,11.6829 l 11.08119,11.04347 4.69968,-2.27508 c 5.53401,-2.67895 8.61667,3.21876 14.135026,5.4964 5.494879,2.26797 71.556637,76.75673 74.393877,82.80416 2.54003,5.41395 6.05238,5.4707 3.52194,10.9053 -1.21052,2.59986 0.86545,3.95231 -9.77163,14.4498 -13.88431,13.70208 -18.29875,17.43998 -21.69229,18.36777 -5.53384,1.51296 -8.64226,1.41949 -13.79131,-0.41468 z M -258.47477,437.59137 c 41.99986,-6.84843 80.46836,-35.29288 99.9383,-73.89655 15.70109,-31.13104 18.56288,-71.59832 7.41619,-104.86897 -26.89012,-80.26164 -118.69378,-117.60024 -193.77559,-78.81286 -37.29677,19.26757 -62.85743,53.12023 -72.06761,95.44669 -2.68695,12.34825 -2.69314,40.43173 -0.0117,53.01023 6.10735,28.64904 19.60225,53.2248 39.84767,72.56716 32.28865,30.84839 74.28989,43.78805 118.65271,36.5543 z"
     style="fill:#ffffff;stroke-width:1.06514"
     sodipodi:nodetypes="cssscscscssssssssssccccscsccccsssscscc" /><path
     sodipodi:nodetypes="cscscssscssssssssssscccscsccccsssscscc"
     style="display:inline;fill:#000000;stroke-width:1.00171"
     d="m -48.634839,593.3076 c -3.12568,-1.11342 -27.529603,-31.76582 -27.529603,-31.76582 -54.943678,-54.39173 -80.635418,-81.20481 -81.920228,-83.94331 -2.50404,-5.33725 -2.42266,-11.86023 0.21598,-17.31092 l 2.13985,-4.42034 -10.86478,-10.89858 c -10.75373,-10.78717 -10.88568,-10.87943 -12.90826,-9.02445 -8.39605,7.70032 -31.42165,19.78289 -48.6231,25.51474 -20.04843,6.68052 -28.95168,8.03612 -53.09074,8.08354 -18.56984,0.0365 -23.09005,-0.2725 -32.81149,-2.24283 -70.12729,-14.21333 -122.34682,-67.55481 -135.05292,-137.95459 -2.23207,-12.36703 -2.5563,-42.30502 -0.58041,-53.59161 6.87761,-39.28585 23.23392,-70.64719 50.49004,-96.80882 45.58553,-43.755 111.17506,-58.47641 171.21665,-38.42917 59.19449,19.7644 102.48236,70.59617 113.03484,132.73371 1.93825,11.41327 2.14651,15.43576 1.68548,32.55565 -0.38893,14.44267 -1.07181,22.05973 -2.62022,29.22708 -4.68135,21.66924 -13.44489,42.43531 -25.46573,60.34358 -3.66768,5.46399 -6.66851,10.20513 -6.66851,10.53588 0,0.33074 4.68958,5.27496 10.42129,10.98717 l 10.42129,10.38582 4.41981,-2.1396 c 5.20445,-2.51942 11.40154,-2.74445 16.59128,-0.60244 5.16765,2.13291 106.44670167,109.98132 109.1149817,115.66862 2.38877,5.09154 2.39395,10.91644 0.0142,16.0274 -1.13843,2.44504 -8.25562,10.31297 -18.2592597,20.18532 -13.05748,12.88611 -17.20903,16.40141 -20.40048,17.27395 -5.2043,1.42286 -8.12761,1.33496 -12.970021,-0.38998 z M -260.04384,428.4622 c 39.49871,-6.4406 75.67636,-33.19115 93.98685,-69.49593 14.76608,-29.27714 17.45744,-67.33455 6.97455,-98.6239 -25.28878,-75.48195 -111.62542,-110.59699 -182.23602,-74.11945 -35.07571,18.12016 -59.1142,49.95686 -67.7759,89.76273 -2.52694,11.61289 -2.53276,38.02396 -0.011,49.8534 5.74365,26.94296 18.43492,50.0552 37.4747,68.2457 30.36582,29.01133 69.86584,41.18042 111.5868,34.37745 z"
     id="path251"
     inkscape:connector-curvature="0" /></g><path
   inkscape:connector-curvature="0"
   d="M 282.45266,97.519524 A 131.63163,121.36126 0 0 0 150.82097,218.88085 131.63163,121.36126 0 0 0 282.45266,340.24218 131.63163,121.36126 0 0 0 414.08437,218.88085 131.63163,121.36126 0 0 0 282.45266,97.519524 Z M 281.904,110.38085 a 117.68197,108.5 0 0 1 0.54866,0 117.68197,108.5 0 0 1 117.68198,108.5 117.68197,108.5 0 0 1 -117.68198,108.5 117.68197,108.5 0 0 1 -117.68195,-108.5 117.68197,108.5 0 0 1 117.13329,-108.5 z"
   style="font-variation-settings:normal;vector-effect:none;fill:#ffffff;fill-opacity:1;fill-rule:evenodd;stroke:#ffffff;stroke-width:0;stroke-linecap:round;stroke-linejoin:round;stroke-miterlimit:4;stroke-dasharray:none;stroke-dashoffset:0;stroke-opacity:0.995935;stop-color:#000000"
   id="circle287" /></svg>
